<?xml version="1.0" standalone="no"?>
<!DOCTYPE svg PUBLIC "-//W3C//DTD SVG 20010904//EN"
 "http://www.w3.org/TR/2001/REC-SVG-20010904/DTD/svg10.dtd">
<svg version="1.0" xmlns="http://www.w3.org/2000/svg"
 width="960.000000pt" height="640.000000pt" viewBox="0 0 960.000000 640.000000"
 preserveAspectRatio="xMidYMid meet">

<g transform="translate(0.000000,640.000000) scale(0.100000,-0.100000)"
fill="#000000" stroke="none">
<path d="M0 3200 l0 -3200 616 0 c377 0 613 4 609 9 -3 5 -1 12 5 16 5 3 10 0
10 -8 0 -9 14 -14 45 -15 25 -1 45 2 45 8 0 5 -4 10 -10 10 -5 0 -10 5 -10 11
0 5 5 7 11 3 9 -5 10 2 6 22 -3 16 -4 23 -1 17 3 -7 15 -14 27 -14 17 -1 18
-2 5 -6 -12 -3 -18 -14 -17 -31 1 -17 3 -21 6 -9 5 21 22 22 29 2 4 -8 12 -15
20 -15 8 0 11 6 8 15 -5 11 -2 13 10 9 9 -3 16 -2 16 4 0 5 -9 12 -20 15 -28
7 -25 25 3 20 16 -3 23 -12 25 -30 1 -15 5 -29 8 -32 9 -9 24 23 18 42 -3 11
0 17 9 17 8 0 17 -13 20 -30 9 -42 36 -40 31 2 -3 23 -1 29 6 22 6 -6 12 -21
13 -33 2 -32 17 -25 17 9 0 40 26 40 35 0 4 -19 13 -30 23 -30 14 0 14 2 3 9
-9 6 -12 20 -9 40 2 17 0 32 -6 34 -6 3 -8 8 -4 12 12 13 29 -6 22 -27 -5 -16
-3 -20 9 -15 12 4 14 2 10 -10 -5 -12 -2 -15 10 -10 11 4 14 2 10 -8 -3 -8 -9
-12 -14 -9 -5 3 -9 1 -9 -4 0 -5 14 -9 31 -10 28 -1 31 2 26 24 -2 13 0 27 4
30 5 3 9 -6 9 -20 0 -14 5 -28 12 -32 6 -4 8 -3 5 4 -9 13 2 42 15 42 7 0 6
-5 -1 -13 -8 -10 -7 -17 1 -25 16 -16 28 -15 28 3 0 17 26 20 36 4 4 -8 9 -7
15 2 7 11 9 11 9 -2 0 -9 7 -16 15 -16 17 0 20 13 5 22 -5 3 -10 11 -10 17 0
7 4 7 13 -1 8 -6 18 -7 22 -3 5 4 6 2 2 -3 -3 -6 -2 -17 4 -25 7 -12 9 -9 10
10 l1 25 8 -25 8 -25 2 25 c2 18 4 20 7 7 4 -14 11 -16 40 -11 21 4 34 3 30
-2 -3 -5 8 -10 24 -10 16 -1 29 3 29 8 0 5 -5 6 -11 2 -8 -4 -8 0 0 15 11 20
5 26 -21 22 -12 -2 -9 16 5 26 6 6 22 13 35 16 19 4 22 2 17 -13 -5 -15 -2
-18 14 -15 23 4 26 -2 11 -25 -6 -10 -10 -11 -10 -2 0 6 -6 12 -14 12 -19 0
-33 -23 -18 -28 7 -2 10 -8 7 -12 -3 -5 87 -9 199 -9 200 0 206 0 221 21 8 13
15 32 16 43 0 11 3 14 6 7 3 -7 0 -26 -6 -42 l-10 -30 55 0 c31 0 54 4 54 11
0 5 -4 8 -9 4 -5 -3 -13 0 -17 6 -4 8 -3 9 4 5 14 -8 31 23 24 44 -2 8 -1 11
4 7 4 -4 7 -24 6 -43 -2 -26 1 -35 10 -32 7 3 13 11 13 19 1 8 7 13 14 11 9
-2 12 4 8 20 -4 15 1 32 13 48 11 14 20 21 20 15 0 -5 4 -4 9 4 16 25 31 1 27
-41 -2 -23 0 -51 4 -62 6 -14 9 -16 9 -6 1 22 48 24 54 2 3 -11 5 -9 6 8 1 18
4 21 10 11 7 -10 12 -8 24 10 9 12 13 27 10 33 -4 6 1 5 10 -3 9 -7 17 -20 17
-28 0 -8 6 -13 13 -10 6 2 12 16 12 31 1 15 6 30 11 34 6 4 14 14 17 22 3 8 3
-7 0 -35 l-6 -50 27 30 c28 32 32 45 15 45 -5 0 -7 5 -3 11 4 8 10 6 17 -6 7
-13 6 -24 -2 -37 -10 -16 -8 -18 15 -18 20 0 24 3 16 13 -7 8 -6 18 4 31 13
18 19 13 16 -15 -1 -3 -3 -24 -6 -47 -3 -23 -1 -42 5 -42 5 0 9 6 9 13 0 9 2
9 8 0 4 -7 25 -12 45 -11 38 1 43 9 38 60 -1 9 2 19 7 22 6 3 9 -11 8 -34 -1
-22 0 -38 2 -35 2 2 15 -1 29 -6 17 -6 30 -6 37 1 9 6 16 6 24 -2 9 -9 18 -9
37 0 16 8 25 8 25 1 0 -6 18 -9 43 -7 39 3 42 5 45 36 2 18 8 30 13 27 5 -4 9
6 9 22 l0 28 -20 -25 c-25 -33 -25 -19 0 22 13 22 20 27 20 16 0 -10 7 -18 15
-18 15 0 20 -12 9 -23 -11 -11 -15 -87 -4 -87 6 0 10 5 10 11 0 7 8 18 18 25
16 13 16 14 0 8 -10 -3 -18 -1 -18 5 0 17 29 13 55 -8 18 -13 21 -21 12 -30
-8 -8 -3 -11 21 -11 22 0 32 5 32 15 0 8 5 15 11 15 5 0 7 5 4 10 -3 6 -1 10
5 10 6 0 8 5 5 10 -11 18 -25 10 -39 -22 l-15 -33 6 35 c8 44 20 52 50 33 13
-8 24 -11 24 -7 10 69 19 108 26 114 3 3 3 -14 -1 -37 -4 -28 -2 -43 4 -43 7
0 8 -6 3 -15 -13 -22 -3 -85 13 -85 20 0 27 19 14 35 -10 12 -10 15 -1 15 8 0
10 8 6 21 -5 13 -3 19 3 15 5 -3 13 1 16 10 3 8 10 12 16 9 6 -4 2 -18 -11
-37 -18 -25 -19 -32 -8 -39 10 -6 16 -1 22 21 7 27 10 29 27 18 23 -14 23 -17
10 -38 -8 -13 -10 -12 -10 5 0 14 -3 16 -12 7 -8 -8 -8 -15 2 -27 17 -20 37
-19 43 3 4 16 5 16 6 -1 1 -16 11 -18 104 -16 59 1 105 7 110 13 5 8 10 6 17
-4 6 -9 13 -11 18 -5 10 13 72 14 72 1 0 -6 5 -4 10 4 6 10 10 11 10 3 0 -7 7
-13 16 -13 8 0 12 5 9 10 -3 6 -2 10 4 10 5 0 12 -6 14 -12 4 -10 8 -9 16 2 8
11 11 12 11 2 0 -7 4 -11 8 -8 5 3 6 27 1 53 -4 30 -3 52 3 58 8 7 9 6 4 -2
-3 -6 -2 -14 2 -17 5 -3 8 -22 6 -41 -1 -24 1 -35 9 -32 7 2 13 9 13 15 3 25
5 26 15 10 16 -28 28 -21 35 21 5 29 10 38 21 34 10 -4 13 -16 11 -35 -4 -21
0 -32 11 -35 9 -4 24 -13 35 -22 17 -15 18 -14 14 9 -2 14 -9 24 -16 22 -6 -1
-12 2 -12 8 0 18 25 10 40 -13 8 -12 14 -25 13 -28 -1 -3 5 -6 13 -6 7 0 14 6
14 14 0 7 7 13 15 13 8 0 15 5 15 11 0 5 -4 7 -10 4 -5 -3 -18 -1 -27 4 -10 6
-12 11 -5 11 6 0 12 9 12 21 0 11 4 17 10 14 6 -3 7 1 4 9 -10 25 -24 18 -25
-11 -1 -22 -2 -23 -6 -8 -3 11 -10 23 -15 26 -5 4 2 9 16 13 21 5 25 11 22 31
-3 14 0 25 5 25 5 0 9 -10 9 -23 0 -13 3 -27 8 -31 4 -4 8 -17 9 -29 0 -12 2
-39 4 -59 1 -21 6 -38 11 -38 4 0 7 3 7 8 -1 4 0 10 1 15 6 18 4 67 -2 67 -14
0 -8 28 7 33 17 7 29 -8 19 -24 -5 -9 1 -10 20 -5 18 4 25 3 21 -4 -3 -5 -1
-10 5 -10 7 0 8 -6 0 -19 -12 -24 -13 -31 -2 -31 5 0 13 12 19 27 l11 28 -2
-30 c0 -16 -5 -33 -9 -36 -5 -3 -2 -9 7 -12 17 -7 21 9 16 63 -1 14 2 21 6 17
9 -9 10 -13 12 -59 2 -27 4 -28 53 -28 l51 0 -7 33 -6 32 15 -32 c15 -32 17
-33 76 -33 46 0 59 3 54 13 -6 9 -4 9 8 -1 19 -15 258 -16 258 -1 0 5 5 9 11
9 5 0 7 -4 4 -10 -3 -5 1 -10 10 -10 10 0 13 5 9 12 -5 7 -3 8 7 2 26 -16 41
-13 36 7 -3 10 -1 17 4 13 5 -3 9 -11 9 -19 0 -8 9 -13 19 -12 16 1 18 5 9 21
-10 18 -9 18 17 -2 33 -26 47 -28 38 -6 -3 8 -11 13 -18 10 -8 -3 -16 2 -19
10 -9 23 -7 34 4 34 6 0 9 -6 8 -12 -2 -8 6 -13 18 -12 13 0 20 -4 17 -12 -9
-24 18 -25 38 -2 14 15 20 18 19 8 -4 -29 0 -40 16 -40 11 0 14 5 10 17 -6 14
-4 14 14 -2 21 -19 21 -19 15 8 -5 18 -3 27 5 27 6 0 9 -4 6 -9 -8 -13 20 -45
32 -37 7 4 13 17 13 29 1 20 2 21 6 2 6 -22 21 -35 40 -35 8 0 10 7 6 17 -6
17 -5 17 15 0 20 -18 21 -18 31 1 8 16 7 21 -5 26 -12 5 -14 1 -9 -17 6 -17 5
-19 -5 -10 -14 13 -5 48 10 38 5 -3 15 -3 21 1 8 5 8 9 -1 14 -7 4 -9 13 -6
19 4 6 11 9 15 6 10 -6 8 -66 -3 -84 -6 -9 -5 -12 5 -9 8 2 15 17 17 31 2 15
9 27 17 27 16 0 29 -35 20 -50 -3 -5 -1 -10 5 -10 6 0 13 14 17 30 7 39 21 39
15 0 -3 -23 0 -30 12 -30 9 0 16 3 17 8 0 4 3 16 5 27 3 11 6 32 6 47 2 34 10
28 14 -9 5 -48 14 -73 25 -73 6 0 8 7 5 16 -5 14 -4 15 9 4 12 -10 15 -10 15
1 0 8 6 5 15 -7 11 -14 14 -15 15 -4 0 13 1 13 10 0 8 -12 10 -12 10 5 1 19 1
19 11 2 14 -24 116 -22 122 2 4 14 5 13 6 -1 1 -16 33 -17 451 -18 292 0 450
3 450 10 0 6 9 5 25 -2 18 -8 28 -8 39 1 8 6 16 8 18 3 1 -5 20 -7 42 -4 26 3
34 7 25 13 -12 8 -12 10 0 18 8 5 11 16 8 26 -4 10 -3 14 4 10 5 -4 9 -14 8
-23 -4 -40 1 -47 38 -50 21 -1 40 3 45 10 6 10 8 10 8 0 0 -7 4 -11 10 -7 5 3
7 13 4 23 -5 13 -4 14 4 3 7 -9 15 -10 28 -3 11 5 25 7 32 5 7 -3 12 3 12 14
0 15 2 16 10 3 8 -13 10 -12 10 3 0 10 5 15 11 12 7 -5 4 -15 -6 -32 -10 -14
-12 -22 -6 -19 6 4 11 2 11 -4 0 -6 5 -8 10 -5 6 4 8 10 6 14 -3 4 1 8 8 8 8
0 12 -6 9 -12 -2 -8 5 -12 21 -12 21 0 23 3 16 21 -4 11 -13 20 -19 18 -6 -1
-11 2 -11 8 0 18 25 11 39 -11 10 -18 15 -19 22 -8 5 8 9 9 9 4 0 -6 -5 -16
-10 -21 -7 -7 -6 -11 5 -11 8 0 15 6 15 12 0 7 11 13 24 13 17 0 23 -5 19 -14
-3 -8 -1 -14 5 -14 14 0 21 33 16 82 l-4 43 16 -30 c8 -16 13 -37 11 -46 -3
-11 1 -16 12 -14 9 2 18 4 21 4 3 1 -2 6 -10 11 -11 7 -11 10 -2 10 7 0 10 5
7 10 -3 6 -1 10 6 10 7 0 10 -13 7 -35 -4 -35 -4 -36 40 -35 4 0 7 11 6 24 0
14 4 23 8 20 4 -3 8 -16 8 -30 0 -22 4 -24 50 -24 41 0 50 3 51 18 0 15 1 15
7 1 5 -11 24 -16 71 -18 50 -2 61 0 55 11 -6 11 -5 11 8 0 19 -15 258 -16 258
-1 0 5 5 9 11 9 5 0 7 -5 4 -10 -3 -6 1 -10 10 -10 10 0 13 5 9 12 -5 7 -3 8
7 2 26 -16 41 -13 36 7 -3 10 -1 17 4 13 5 -3 9 -12 9 -20 0 -8 5 -14 11 -14
5 0 7 5 3 11 -5 9 1 10 22 5 54 -14 79 -13 92 3 11 14 12 14 7 0 -5 -13 5 -15
70 -15 56 1 78 5 85 16 8 13 10 13 10 -1 0 -13 11 -17 44 -17 44 -1 69 14 64
38 -2 7 4 15 12 17 13 4 13 3 0 -6 -13 -10 -8 -15 13 -12 4 0 7 -8 7 -19 0
-27 15 -26 17 1 1 12 6 26 11 31 5 5 7 -4 4 -22 -6 -42 26 -42 35 0 3 17 9 30
13 30 4 0 10 -13 14 -30 6 -32 25 -41 27 -12 0 9 3 12 5 5 3 -7 12 -9 20 -6 8
3 14 0 14 -6 0 -6 9 -11 20 -11 14 0 18 5 14 18 -5 16 -5 16 5 0 10 -15 48
-17 416 -18 l405 -1 0 3201 0 3200 -1300 0 -1299 0 6 -30 c5 -25 3 -29 -11
-24 -10 4 -15 14 -12 29 4 19 0 23 -21 21 -19 -1 -24 -5 -20 -23 2 -12 0 -28
-5 -35 -8 -10 -9 -10 -5 2 2 8 1 25 -4 38 l-8 22 -1143 -2 -1142 -3 -8 -25
c-7 -24 -8 -24 -4 3 l3 27 -224 0 c-136 0 -222 -4 -218 -9 3 -5 1 -12 -5 -16
-5 -3 -10 1 -10 9 0 12 -11 16 -44 16 -41 0 -45 -2 -49 -27 l-4 -28 -2 28 c0
15 -6 27 -12 27 -7 0 -9 -11 -5 -30 3 -19 2 -29 -4 -25 -5 3 -18 1 -27 -4 -16
-9 -15 -10 6 -11 13 0 21 -3 18 -7 -4 -3 -2 -12 3 -18 7 -9 5 -17 -7 -26 -15
-13 -16 -12 -11 9 4 14 2 22 -7 22 -19 0 -27 30 -10 36 8 4 15 17 15 31 0 13
-4 22 -10 18 -5 -3 -7 -12 -3 -20 3 -8 0 -15 -6 -15 -6 0 -11 9 -11 20 0 11
-4 20 -10 20 -6 0 -6 -9 -1 -23 6 -14 6 -30 0 -38 -7 -11 -9 -9 -9 8 0 55 19
52 -391 53 l-379 0 -1 -22 c-1 -13 -1 -29 0 -35 1 -7 -2 -13 -8 -13 -5 0 -8
15 -6 34 2 30 0 34 -22 34 -21 0 -24 -4 -19 -23 4 -16 1 -25 -10 -29 -14 -5
-16 -1 -11 24 5 22 3 30 -7 30 -18 0 -27 -61 -12 -79 9 -12 8 -13 -3 -6 -11 6
-13 4 -8 -8 3 -9 1 -19 -5 -23 -8 -5 -9 11 -4 55 l7 61 -45 0 c-35 0 -44 -3
-40 -14 3 -8 1 -17 -5 -21 -7 -3 -11 2 -11 14 l0 21 -1500 0 -1500 0 0 -3200z
m2510 3180 c0 -5 -5 -10 -11 -10 -5 0 -7 5 -4 10 3 6 8 10 11 10 2 0 4 -4 4
-10z m1395 0 c3 -5 1 -10 -4 -10 -6 0 -11 5 -11 10 0 6 2 10 4 10 3 0 8 -4 11
-10z m785 0 c0 -5 -5 -10 -11 -10 -5 0 -7 5 -4 10 3 6 8 10 11 10 2 0 4 -4 4
-10z m97 -12 c-3 -8 -6 -5 -6 6 -1 11 2 17 5 13 3 -3 4 -12 1 -19z m2068 12
c3 -5 1 -10 -4 -10 -6 0 -11 5 -11 10 0 6 2 10 4 10 3 0 8 -4 11 -10z m282 -5
c0 -8 -4 -12 -9 -9 -4 3 -8 9 -8 15 0 5 4 9 8 9 5 0 9 -7 9 -15z m494 -8 c-10
-9 -11 -8 -5 6 3 10 9 15 12 12 3 -3 0 -11 -7 -18z m-5223 -23 c-3 -14 -5 -12
-10 9 -3 19 -2 25 4 19 6 -6 8 -18 6 -28z m156 20 c3 -8 2 -12 -4 -9 -6 3 -10
10 -10 16 0 14 7 11 14 -7z m231 7 c3 -5 1 -12 -5 -16 -5 -3 -10 1 -10 9 0 18
6 21 15 7z m384 -43 c-1 -29 -3 -45 -6 -35 -5 18 -25 24 -20 6 1 -6 -5 -14
-13 -16 -9 -3 -11 -1 -5 4 6 4 11 17 11 28 0 11 5 19 12 18 7 -2 11 0 11 5 -3
15 1 42 6 42 3 0 4 -24 4 -52z m3794 10 c-2 -5 2 -8 9 -8 8 0 14 -11 14 -25 0
-14 -4 -25 -9 -25 -5 0 -7 7 -3 15 3 8 1 15 -4 15 -6 0 -11 -8 -11 -17 -1 -10
-4 -4 -8 12 -4 17 -5 41 -2 55 4 22 5 23 11 5 4 -11 6 -23 3 -27z m67 26 c0
-8 -5 -12 -10 -9 -6 4 -8 11 -5 16 9 14 15 11 15 -7z m320 6 c0 -5 -5 -10 -11
-10 -5 0 -7 5 -4 10 3 6 8 10 11 10 2 0 4 -4 4 -10z m217 -12 c-3 -8 -6 -5 -6
6 -1 11 2 17 5 13 3 -3 4 -12 1 -19z m-4872 2 c3 -5 1 -10 -4 -10 -6 0 -11 5
-11 10 0 6 2 10 4 10 3 0 8 -4 11 -10z m1702 4 c-3 -3 -12 -4 -19 -1 -8 3 -5
6 6 6 11 1 17 -2 13 -5z m87 -10 c3 -8 2 -12 -4 -9 -6 3 -10 10 -10 16 0 14 7
11 14 -7z m2956 0 c0 -8 -5 -12 -10 -9 -6 4 -8 11 -5 16 9 14 15 11 15 -7z
m-4933 -43 c0 -25 -1 -40 -4 -33 -2 6 -11 12 -19 12 -9 0 -12 -5 -8 -12 5 -7
3 -8 -6 -3 -10 6 -9 11 4 20 12 9 15 21 11 37 -4 17 -2 25 7 25 9 0 14 -16 15
-46z m2170 20 c-5 -23 -2 -31 11 -34 12 -3 11 -5 -5 -6 -24 -1 -30 19 -17 53
10 27 17 18 11 -13z m2967 -34 c7 -6 5 -7 -6 -3 -10 3 -18 -1 -21 -12 -3 -9
-5 -1 -4 18 1 44 11 63 15 30 2 -14 9 -29 16 -33z m-5297 21 c-3 -8 -6 -5 -6
6 -1 11 2 17 5 13 3 -3 4 -12 1 -19z m459 0 c-1 -10 -8 -24 -14 -30 -9 -9 -10
-6 -7 12 3 13 -1 27 -8 32 -7 4 -3 6 10 5 15 -1 21 -7 19 -19z m1279 -3 c-1
-14 -6 -29 -10 -33 -4 -4 -4 4 0 17 5 16 4 21 -4 17 -12 -8 -15 6 -4 17 13 14
21 6 18 -18z m745 15 c0 -5 -5 -10 -11 -10 -5 0 -7 5 -4 10 3 6 8 10 11 10 2
0 4 -4 4 -10z m2205 -27 l-7 -28 -9 24 c-7 17 -6 27 3 32 18 11 21 4 13 -28z
m305 27 c-18 -12 -30 -13 -30 -2 0 4 10 9 22 9 18 2 20 0 8 -7z m-4813 -22
c-3 -8 -6 -5 -6 6 -1 11 2 17 5 13 3 -3 4 -12 1 -19z m100 -15 c-3 -10 -5 -4
-5 12 0 17 2 24 5 18 2 -7 2 -21 0 -30z m2015 15 c-7 -7 -12 -8 -12 -2 0 14
12 26 19 19 2 -3 -1 -11 -7 -17z m231 4 c-3 -7 -9 -10 -12 -5 -3 4 -10 11 -15
15 -4 4 1 6 12 5 12 -1 18 -6 15 -15z m2624 -4 c-3 -8 -6 -5 -6 6 -1 11 2 17
5 13 3 -3 4 -12 1 -19z m89 -6 c-17 -16 -18 -16 -5 5 7 12 15 20 18 17 3 -2
-3 -12 -13 -22z m111 22 c-3 -3 -12 -4 -19 -1 -8 3 -5 6 6 6 11 1 17 -2 13 -5z
m-4957 -20 c0 -8 -5 -12 -10 -9 -6 4 -8 11 -5 16 9 14 15 11 15 -7z m1690 -23
c-7 -14 -7 -21 0 -21 5 0 10 -5 10 -11 0 -5 -4 -7 -10 -4 -5 3 -10 1 -10 -6 0
-10 -3 -10 -12 -1 -8 8 -8 15 0 25 7 8 9 17 5 20 -3 4 -1 7 5 7 7 0 11 3 11 8
-3 15 3 26 7 15 3 -7 0 -21 -6 -32z m2881 22 c13 -16 12 -17 -3 -4 -10 7 -18
15 -18 17 0 8 8 3 21 -13z m69 -22 c-7 -14 -7 -21 0 -21 5 0 10 -5 10 -11 0
-5 -4 -7 -10 -4 -11 7 -13 -9 -4 -43 l7 -23 13 26 c7 14 11 31 8 38 -3 9 5 13
23 12 15 0 32 4 36 10 4 5 7 -1 5 -14 -2 -14 -10 -26 -18 -28 -13 -4 -13 -3 0
6 12 9 11 11 -7 11 -13 0 -23 -2 -23 -4 0 -2 -3 -12 -7 -22 -5 -14 -2 -16 15
-12 17 5 22 2 22 -13 0 -10 -4 -19 -10 -19 -5 0 -10 5 -10 10 0 6 -5 10 -11
10 -5 0 -8 -4 -5 -9 3 -5 -2 -12 -11 -15 -15 -6 -15 -8 -3 -16 8 -5 19 -5 23
-1 5 5 17 6 28 4 20 -6 25 -29 10 -52 -8 -12 -11 -12 -25 1 -8 9 -12 18 -9 22
4 3 -2 6 -12 6 -10 0 -15 -3 -12 -7 9 -8 -12 -33 -27 -33 -6 0 -4 5 4 10 10 6
11 10 3 10 -8 0 -13 13 -13 30 0 24 -3 28 -17 23 -11 -4 -12 -8 -5 -11 7 -2
12 -17 12 -33 0 -23 -5 -29 -22 -30 -22 -1 -22 -1 2 -8 14 -4 35 -4 48 0 12 5
22 5 22 0 0 -5 282 -10 643 -11 353 -1 731 -3 841 -4 l198 -1 -7 -2595 c-4
-1427 -8 -2705 -11 -2840 -2 -135 -3 -266 -4 -292 0 -45 -1 -46 -27 -43 -16 2
-343 6 -728 10 -385 3 -1265 12 -1955 20 -690 8 -1493 17 -1785 20 -291 3
-890 10 -1330 15 -440 6 -1133 13 -1540 16 -407 3 -749 8 -760 9 -11 2 -111 4
-222 4 -196 1 -203 2 -229 24 -26 23 -26 24 -25 147 2 135 57 2882 65 3270 11
466 17 733 26 1225 15 785 21 1018 26 1042 4 23 5 23 170 19 136 -4 1860 -10
1902 -7 6 1 12 6 12 12 0 5 -4 7 -10 4 -5 -3 -10 4 -10 16 0 18 2 19 15 9 12
-10 15 -10 15 0 0 9 4 9 13 2 8 -7 18 -7 27 -2 12 8 12 10 -3 16 -9 3 -14 10
-11 15 3 5 0 9 -5 9 -6 0 -11 -4 -11 -10 0 -5 -4 -10 -10 -10 -5 0 -10 9 -10
20 0 13 5 18 15 14 10 -4 15 0 15 15 0 15 -6 21 -21 21 -11 0 -17 -4 -14 -10
3 -5 2 -10 -3 -10 -5 0 -12 8 -14 18 -5 16 1 19 33 19 35 0 38 -2 33 -22 -3
-13 1 -27 12 -36 15 -13 16 -12 9 10 -5 16 -4 21 4 17 6 -4 11 0 11 9 0 9 -5
13 -10 10 -6 -4 -9 2 -7 12 6 30 19 53 29 53 5 0 6 -4 3 -10 -3 -5 -8 -35 -10
-66 -3 -47 -2 -55 11 -50 9 4 12 2 8 -5 -4 -7 -1 -10 6 -7 23 7 23 28 1 28
-12 0 -21 5 -21 10 0 6 4 10 9 10 5 0 7 9 4 20 -3 12 0 20 6 20 7 0 9 -4 6
-10 -3 -5 -1 -18 5 -27 8 -14 10 -14 9 -3 -3 36 1 42 18 24 13 -13 14 -19 5
-22 -6 -2 -12 -15 -12 -28 0 -14 4 -22 10 -19 6 3 10 1 10 -4 0 -6 -4 -11 -10
-11 -5 0 -10 -13 -10 -29 l0 -30 75 0 c64 0 75 2 76 17 1 14 2 15 6 1 2 -11
15 -15 38 -15 19 1 35 4 35 8 0 5 -4 8 -10 8 -5 0 -10 7 -10 15 0 8 5 15 11
15 5 0 7 -5 4 -10 -4 -6 -3 -10 2 -9 26 5 35 -1 23 -16 -11 -13 54 -15 544
-15 l556 0 0 52 c0 37 5 54 18 64 21 16 32 17 32 3 0 -5 -5 -7 -10 -4 -14 9
-30 -39 -27 -81 2 -39 5 -41 24 -16 13 16 13 16 11 -2 -3 -16 5 -19 57 -21 33
-1 68 0 78 3 21 5 23 50 2 58 -14 6 -13 8 2 20 16 11 16 16 5 35 -12 18 -11
24 2 37 15 15 16 13 16 -23 0 -39 1 -40 35 -41 33 0 36 2 41 36 5 33 9 36 35
35 16 -1 29 3 29 8 0 6 3 8 6 5 3 -4 -2 -27 -10 -52 -18 -54 -20 -80 -6 -71 7
4 9 -3 6 -19 -3 -14 -1 -28 3 -30 4 -3 577 -8 1274 -12 l1267 -7 1 29 c1 16 1
48 0 70 -2 23 2 45 7 48 6 4 9 -5 7 -21 -5 -39 4 -70 16 -52 6 11 9 9 15 -6 5
-11 3 -20 -4 -23 -7 -2 -12 -8 -12 -13 0 -6 5 -7 10 -4 6 3 10 1 10 -4 0 -14
-27 -14 -33 -1 -3 6 -4 5 -3 -2 3 -16 83 -24 179 -20 l67 4 0 39 c0 21 -5 39
-10 39 -6 0 -5 8 2 20 10 15 10 22 0 32 -14 14 -16 32 -3 23 5 -3 12 3 14 12
3 11 6 6 7 -12 l2 -30 8 30 c6 24 8 26 9 8 0 -13 6 -23 12 -23 6 0 8 8 4 19
-3 11 -1 22 5 26 6 3 8 11 5 16 -4 5 -1 9 4 9 6 0 11 8 12 18 0 9 3 12 5 5 3
-7 0 -21 -6 -32z m71 12 c-12 -20 -14 -14 -5 12 4 9 9 14 11 11 3 -2 0 -13 -6
-23z m-4773 -8 c-3 -3 -9 2 -12 12 -6 14 -5 15 5 6 7 -7 10 -15 7 -18z m5088
-12 c-11 -11 -17 4 -9 23 7 18 8 18 11 1 2 -10 1 -21 -2 -24z m-5409 -20 c-3
-10 -5 -2 -5 17 0 19 2 27 5 18 2 -10 2 -26 0 -35z m353 43 c0 -3 -4 -8 -10
-11 -5 -3 -10 -1 -10 4 0 6 5 11 10 11 6 0 10 -2 10 -4z m1764 -11 c-4 -8 -8
-15 -10 -15 -2 0 -4 7 -4 15 0 8 4 15 10 15 5 0 7 -7 4 -15z m253 -7 c-3 -8
-6 -5 -6 6 -1 11 2 17 5 13 3 -3 4 -12 1 -19z m2703 12 c0 -5 -2 -10 -4 -10
-3 0 -8 5 -11 10 -3 6 -1 10 4 10 6 0 11 -4 11 -10z m247 -12 c-3 -8 -6 -5 -6
6 -1 11 2 17 5 13 3 -3 4 -12 1 -19z m-2857 5 c0 -5 -5 -15 -10 -23 -8 -12
-10 -11 -10 8 0 12 5 22 10 22 6 0 10 -3 10 -7z m-2376 -29 c3 -8 2 -12 -4 -9
-6 3 -10 10 -10 16 0 14 7 11 14 -7z m2606 6 c0 -5 -2 -10 -4 -10 -3 0 -8 5
-11 10 -3 6 -1 10 4 10 6 0 11 -4 11 -10z m-2530 -21 c0 -4 -7 -6 -15 -3 -8 4
-15 10 -15 15 0 4 7 6 15 3 8 -4 15 -10 15 -15z m1887 -24 c12 -9 11 -11 -6
-12 -17 -1 -21 4 -20 30 1 21 3 25 6 12 3 -11 12 -24 20 -30z m273 35 c0 -5
-8 -10 -17 -10 -15 0 -16 2 -3 10 19 12 20 12 20 0z m2446 -57 c1 -32 3 -62 3
-66 1 -5 6 -5 12 -2 6 4 8 13 6 19 -3 7 -1 19 4 27 6 9 9 -2 9 -35 0 -42 -2
-47 -15 -36 -10 9 -15 9 -15 1 0 -6 -5 -11 -11 -11 -6 0 -10 24 -8 65 1 36 0
68 -4 71 -3 3 -3 12 0 20 9 25 16 6 19 -53z m504 57 c0 -5 -8 -10 -17 -10 -15
0 -16 2 -3 10 19 12 20 12 20 0z m140 0 c0 -5 -2 -10 -4 -10 -3 0 -8 5 -11 10
-3 6 -1 10 4 10 6 0 11 -4 11 -10z m-5450 -31 c0 -10 -4 -19 -9 -19 -5 0 -8
11 -7 24 1 28 16 24 16 -5z m690 -9 c0 -22 -4 -40 -10 -40 -11 0 -14 63 -3 73
11 12 13 8 13 -33z m1156 13 c-10 -10 -19 5 -10 18 6 11 8 11 12 0 2 -7 1 -15
-2 -18z m-50 -27 c-4 -27 -3 -47 4 -51 5 -3 10 0 10 7 0 10 3 9 10 -2 5 -9 5
-19 -2 -27 -15 -18 -42 -17 -34 2 3 8 2 25 -3 37 -7 19 6 78 17 78 2 0 1 -20
-2 -44z m911 22 c-3 -8 -6 -5 -6 6 -1 11 2 17 5 13 3 -3 4 -12 1 -19z m140 0
c-3 -8 -6 -5 -6 6 -1 11 2 17 5 13 3 -3 4 -12 1 -19z m2644 -21 c-6 -6 -11 -7
-11 -3 0 5 -8 2 -17 -5 -17 -13 -17 -13 0 7 9 11 17 27 17 35 1 10 4 8 11 -4
8 -14 8 -22 0 -30z m174 33 c3 -5 1 -10 -4 -10 -6 0 -11 5 -11 10 0 6 2 10 4
10 3 0 8 -4 11 -10z m485 -5 c0 -2 -9 -3 -19 -2 -11 0 -18 5 -15 9 4 6 34 0
34 -7z m-6320 -5 c0 -5 -2 -10 -4 -10 -3 0 -8 5 -11 10 -3 6 -1 10 4 10 6 0
11 -4 11 -10z m1427 -37 c-3 -10 -5 -2 -5 17 0 19 2 27 5 18 2 -10 2 -26 0
-35z m690 25 c-3 -8 -6 -5 -6 6 -1 11 2 17 5 13 3 -3 4 -12 1 -19z m601 0 c-2
-5 -8 -10 -13 -10 -6 0 -15 -4 -22 -10 -9 -7 -9 -4 0 15 10 23 42 27 35 5z
m192 12 c0 -5 -4 -10 -10 -10 -5 0 -10 5 -10 10 0 6 5 10 10 10 6 0 10 -4 10
-10z m2157 -22 c-3 -7 -5 -2 -5 12 0 14 2 19 5 13 2 -7 2 -19 0 -25z m535 0
c-8 -8 -9 -4 -5 13 4 13 8 18 11 10 2 -7 -1 -18 -6 -23z m-6045 0 c-3 -8 -6
-5 -6 6 -1 11 2 17 5 13 3 -3 4 -12 1 -19z m673 -13 c0 -5 -5 -3 -10 5 -5 8
-10 20 -10 25 0 6 5 3 10 -5 5 -8 10 -19 10 -25z m82 0 c3 -13 1 -22 -3 -19
-5 3 -9 12 -9 20 0 8 -4 12 -10 9 -6 -3 -7 1 -4 9 8 21 21 12 26 -19z m608 -1
c0 -18 -4 -35 -9 -39 -6 -3 -9 7 -8 22 1 17 -3 27 -10 26 -7 -2 -10 3 -7 10
10 28 34 14 34 -19z m63 16 c-5 -19 -23 -29 -23 -12 0 7 20 32 26 32 1 0 0 -9
-3 -20z m921 -19 c-6 -6 -24 19 -24 34 1 6 7 1 15 -9 8 -11 12 -22 9 -25z
m668 17 c-7 -7 -12 -8 -12 -2 0 14 12 26 19 19 2 -3 -1 -11 -7 -17z m365 -3
c-7 -17 -27 -21 -27 -4 0 5 5 7 10 4 6 -3 10 2 10 11 0 10 3 15 6 11 4 -3 4
-13 1 -22z m1919 -12 c-4 -4 -11 -1 -16 7 -7 11 -10 12 -10 2 0 -7 -4 -10 -10
-7 -6 4 -5 11 3 20 10 11 14 11 26 -1 8 -7 11 -17 7 -21z m678 21 c3 -8 2 -12
-4 -9 -10 6 -14 -12 -10 -52 1 -13 -4 -23 -10 -23 -7 0 -9 14 -6 40 7 57 19
74 30 44z m733 -6 c-3 -8 -6 -5 -6 6 -1 11 2 17 5 13 3 -3 4 -12 1 -19z
m-5909 -13 c-3 -3 -9 2 -12 12 -6 14 -5 15 5 6 7 -7 10 -15 7 -18z m1429 -7
c-3 -7 -5 -2 -5 12 0 14 2 19 5 13 2 -7 2 -19 0 -25z m615 25 c-6 -2 -9 -10
-6 -15 4 -7 2 -8 -5 -4 -13 9 -5 26 12 25 9 0 8 -2 -1 -6z m258 3 c0 -3 -4 -8
-10 -11 -5 -3 -10 -1 -10 4 0 6 5 11 10 11 6 0 10 -2 10 -4z m2083 -16 c3 -11
1 -20 -4 -20 -5 0 -9 9 -9 20 0 11 2 20 4 20 2 0 6 -9 9 -20z m992 10 c3 -5 1
-10 -4 -10 -6 0 -11 5 -11 10 0 6 2 10 4 10 3 0 8 -4 11 -10z m155 -6 c0 -11
-6 -15 -20 -11 -10 3 -21 0 -24 -7 -2 -6 -5 -3 -5 8 -1 12 4 16 14 13 8 -4 17
-2 20 3 9 15 15 12 15 -6z m-5940 -4 c0 -5 -4 -10 -10 -10 -5 0 -10 5 -10 10
0 6 5 10 10 10 6 0 10 -4 10 -10z m30 0 c0 -5 -2 -10 -4 -10 -3 0 -8 5 -11 10
-3 6 -1 10 4 10 6 0 11 -4 11 -10z m4617 -27 c-3 -10 -5 -4 -5 12 0 17 2 24 5
18 2 -7 2 -21 0 -30z m720 15 c-3 -8 -6 -5 -6 6 -1 11 2 17 5 13 3 -3 4 -12 1
-19z m164 -5 c-12 -20 -14 -14 -5 12 4 9 9 14 11 11 3 -2 0 -13 -6 -23z
m-4664 -25 c-3 -7 -5 -2 -5 12 0 14 2 19 5 13 2 -7 2 -19 0 -25z m1243 11 c0
-11 -4 -18 -10 -14 -5 3 -7 12 -3 20 7 21 13 19 13 -6z m508 -9 c1 -16 -2 -30
-7 -30 -5 0 -9 14 -9 30 1 17 4 30 7 30 4 0 8 -13 9 -30z m-2284 -5 c3 -8 1
-15 -4 -15 -6 0 -10 7 -10 15 0 8 2 15 4 15 2 0 6 -7 10 -15z m4816 -15 c5 0
11 5 13 10 3 6 4 5 3 -2 -4 -18 -30 -16 -32 2 0 9 1 10 3 3 3 -7 8 -13 13 -13z
m446 3 c-10 -10 -19 5 -10 18 6 11 8 11 12 0 2 -7 1 -15 -2 -18z m-5232 2 c-4
-8 -8 -15 -10 -15 -2 0 -4 7 -4 15 0 8 4 15 10 15 5 0 7 -7 4 -15z m465 6 c7
-5 9 -11 5 -14 -5 -3 -15 1 -22 9 -14 16 -5 18 17 5z m1821 5 c0 -3 -4 -8 -10
-11 -5 -3 -10 -1 -10 4 0 6 5 11 10 11 6 0 10 -2 10 -4z m2545 -6 c3 -5 1 -10
-4 -10 -6 0 -11 5 -11 10 0 6 2 10 4 10 3 0 8 -4 11 -10z m-3398 -22 c-3 -8
-6 -5 -6 6 -1 11 2 17 5 13 3 -3 4 -12 1 -19z m160 0 c-3 -8 -6 -5 -6 6 -1 11
2 17 5 13 3 -3 4 -12 1 -19z m180 0 c-3 -8 -6 -5 -6 6 -1 11 2 17 5 13 3 -3 4
-12 1 -19z m2460 -10 c-3 -7 -5 -2 -5 12 0 14 2 19 5 13 2 -7 2 -19 0 -25z
m276 4 c-5 -21 -32 -30 -46 -16 -7 8 12 29 33 36 20 7 20 6 13 -20z m27 -9
c-11 -17 -11 -17 -6 0 3 10 6 24 7 30 0 9 2 9 5 0 3 -7 0 -20 -6 -30z m200 16
c0 -5 -4 -9 -10 -9 -5 0 -10 7 -10 16 0 8 5 12 10 9 6 -3 10 -10 10 -16z m430
11 c0 -5 -4 -10 -10 -10 -5 0 -10 5 -10 10 0 6 5 10 10 10 6 0 10 -4 10 -10z
m-3610 -10 c0 -5 -7 -10 -16 -10 -8 0 -12 5 -9 10 3 6 10 10 16 10 5 0 9 -4 9
-10z m3015 0 c3 -5 1 -10 -4 -10 -6 0 -11 5 -11 10 0 6 2 10 4 10 3 0 8 -4 11
-10z m695 -4 c0 -2 -8 -10 -17 -17 -16 -13 -17 -12 -4 4 13 16 21 21 21 13z
m120 -10 c0 -2 -7 -7 -16 -10 -8 -3 -12 -2 -9 4 6 10 25 14 25 6z m1437 -753
c-3 -10 -5 -4 -5 12 0 17 2 24 5 18 2 -7 2 -21 0 -30z m0 -45 c-3 -8 -6 -5 -6
6 -1 11 2 17 5 13 3 -3 4 -12 1 -19z m50 -280 c-3 -7 -5 -2 -5 12 0 14 2 19 5
13 2 -7 2 -19 0 -25z m-60 -434 c-3 -3 -12 -4 -19 -1 -8 3 -5 6 6 6 11 1 17
-2 13 -5z m-10 -136 c-3 -8 -6 -5 -6 6 -1 11 2 17 5 13 3 -3 4 -12 1 -19z m70
-20 c-3 -8 -6 -5 -6 6 -1 11 2 17 5 13 3 -3 4 -12 1 -19z m-87 -1668 c0 -5 -5
-10 -11 -10 -5 0 -7 5 -4 10 3 6 8 10 11 10 2 0 4 -4 4 -10z m37 -27 c-3 -10
-5 -4 -5 12 0 17 2 24 5 18 2 -7 2 -21 0 -30z m0 -45 c-3 -8 -6 -5 -6 6 -1 11
2 17 5 13 3 -3 4 -12 1 -19z m3 -68 c0 -5 -2 -10 -4 -10 -3 0 -8 5 -11 10 -3
6 -1 10 4 10 6 0 11 -4 11 -10z m-3 -1392 c-3 -7 -5 -2 -5 12 0 14 2 19 5 13
2 -7 2 -19 0 -25z m3 -108 c0 -5 -2 -10 -4 -10 -3 0 -8 5 -11 10 -3 6 -1 10 4
10 6 0 11 -4 11 -10z m-10 -774 c0 -3 -4 -8 -10 -11 -5 -3 -10 -1 -10 4 0 6 5
11 10 11 6 0 10 -2 10 -4z m-6507 -227 c7 -1 15 -1 20 0 4 0 7 -4 7 -9 0 -5
-4 -10 -9 -10 -5 0 -7 -10 -3 -22 4 -17 2 -20 -11 -15 -10 4 -17 2 -17 -3 0
-6 10 -10 23 -10 18 0 19 -2 7 -10 -8 -5 -27 -10 -41 -10 -24 0 -25 3 -23 43
1 23 7 41 13 40 6 -2 10 5 9 15 -3 35 5 57 9 25 2 -18 10 -34 16 -34z m-73 26
c0 -8 -4 -15 -10 -15 -5 0 -7 7 -4 15 4 8 8 15 10 15 2 0 4 -7 4 -15z m-1015
-13 c-3 -3 -11 0 -18 7 -9 10 -8 11 6 5 10 -3 15 -9 12 -12z m1862 -34 c-3 -7
-5 -2 -5 12 0 14 2 19 5 13 2 -7 2 -19 0 -25z m-1980 2 c-3 -11 -1 -20 4 -20
5 0 9 -4 9 -10 0 -5 -7 -10 -15 -10 -8 0 -15 3 -15 8 0 15 13 52 17 52 3 0 3
-9 0 -20z m103 -13 c0 -6 -7 -2 -15 9 -10 13 -14 15 -15 5 0 -8 -3 -12 -6 -8
-3 3 -3 11 1 17 8 13 35 -5 35 -23z m930 17 c0 -8 -4 -12 -10 -9 -5 3 -10 10
-10 16 0 5 5 9 10 9 6 0 10 -7 10 -16z m514 0 c3 -8 2 -12 -4 -9 -6 3 -10 10
-10 16 0 14 7 11 14 -7z m341 -4 c-4 -11 -2 -20 4 -20 6 0 11 6 11 14 0 7 8
16 19 19 31 8 14 -28 -20 -40 -31 -12 -36 -4 -23 31 9 23 16 20 9 -4z m120 -4
c0 -15 -4 -21 -9 -16 -5 5 -6 16 -3 24 9 22 12 20 12 -8z m81 -3 c-10 -10 -19
5 -10 18 6 11 8 11 12 0 2 -7 1 -15 -2 -18z m408 -16 c-1 -23 -2 -48 -3 -54
-2 -18 -21 -16 -21 2 0 8 3 15 8 15 4 0 6 18 4 40 -2 22 0 40 4 40 5 0 9 -19
8 -43z m162 27 c-4 -9 -1 -23 5 -30 9 -11 8 -14 -5 -14 -16 0 -23 40 -9 53 11
12 15 8 9 -9z m351 -6 c-3 -8 -6 -5 -6 6 -1 11 2 17 5 13 3 -3 4 -12 1 -19z
m1028 2 c-4 -13 -2 -20 6 -20 10 0 10 -3 1 -12 -6 -6 -15 -9 -18 -5 -7 7 3 57
12 57 3 0 2 -9 -1 -20z m-2336 -30 c0 -10 -3 -8 -9 5 -12 27 -12 43 0 25 5 -8
9 -22 9 -30z m-1852 11 c-1 -12 -7 -17 -19 -13 -18 4 -18 5 -1 18 23 17 22 17
20 -5z m63 -12 c0 -3 -6 -6 -14 -6 -8 0 -11 8 -8 20 4 14 7 16 13 5 5 -7 9
-16 9 -19z m298 -7 c14 -11 14 -12 0 -12 -16 0 -29 21 -27 43 0 7 3 5 6 -3 3
-8 12 -21 21 -28z m389 23 c0 -8 -4 -12 -9 -9 -5 3 -6 10 -3 15 9 13 12 11 12
-6z m4696 0 c-3 -9 -8 -14 -10 -11 -3 3 -2 9 2 15 9 16 15 13 8 -4z m371 -6
c-6 -11 -24 -2 -24 11 0 5 7 7 15 4 8 -4 12 -10 9 -15z m-5914 7 c0 -2 -7 -7
-16 -10 -8 -3 -12 -2 -9 4 6 10 25 14 25 6z m215 -8 c5 4 5 1 1 -5 -10 -18
-23 -16 -30 3 -5 13 -4 14 7 6 8 -7 18 -8 22 -4z m165 -9 c0 -5 -4 -9 -10 -9
-5 0 -10 7 -10 16 0 8 5 12 10 9 6 -3 10 -10 10 -16z m2024 5 c3 -8 2 -12 -4
-9 -6 3 -10 10 -10 16 0 14 7 11 14 -7z m181 6 c3 -5 1 -10 -4 -10 -6 0 -11 5
-11 10 0 6 2 10 4 10 3 0 8 -4 11 -10z m465 -11 c0 -14 -17 -10 -23 5 -4 10
-1 13 9 9 7 -3 14 -9 14 -14z m1114 6 c-4 -8 -8 -15 -10 -15 -2 0 -4 7 -4 15
0 8 4 15 10 15 5 0 7 -7 4 -15z m1650 -7 c-4 -6 0 -14 7 -19 11 -7 10 -9 -3
-9 -13 0 -18 8 -18 26 0 14 4 23 10 19 6 -4 7 -11 4 -17z m47 5 c13 -16 12
-17 -3 -4 -17 13 -22 21 -14 21 2 0 10 -8 17 -17z m156 -5 c-3 -8 -6 -5 -6 6
-1 11 2 17 5 13 3 -3 4 -12 1 -19z m-5612 2 c3 -5 1 -10 -4 -10 -6 0 -11 5
-11 10 0 6 2 10 4 10 3 0 8 -4 11 -10z m1528 -10 c3 -11 1 -20 -4 -20 -5 0 -9
9 -9 20 0 11 2 20 4 20 2 0 6 -9 9 -20z m1881 5 c3 -8 11 -15 17 -15 8 0 8 5
-1 16 -11 12 -11 15 1 12 32 -7 38 -38 8 -38 -15 0 -19 -5 -15 -16 3 -8 2 -13
-3 -10 -13 8 -32 66 -22 66 5 0 11 -7 15 -15z m272 -12 c-10 -10 -19 5 -10 18
6 11 8 11 12 0 2 -7 1 -15 -2 -18z m1979 17 c3 -5 -1 -10 -9 -10 -9 0 -16 5
-16 10 0 6 4 10 9 10 6 0 13 -4 16 -10z m1179 -2 c-3 -4 -9 -8 -15 -8 -5 0 -9
4 -9 8 0 5 7 9 15 9 8 0 12 -4 9 -9z m-6897 -20 c-3 -8 -6 -5 -6 6 -1 11 2 17
5 13 3 -3 4 -12 1 -19z m153 18 c0 -3 -4 -8 -10 -11 -5 -3 -10 -1 -10 4 0 6 5
11 10 11 6 0 10 -2 10 -4z m804 -11 c3 -8 1 -15 -4 -15 -6 0 -10 7 -10 15 0 8
2 15 4 15 2 0 6 -7 10 -15z m2581 5 c3 -5 1 -10 -4 -10 -6 0 -11 5 -11 10 0 6
2 10 4 10 3 0 8 -4 11 -10z m166 -5 c5 4 6 -1 2 -10 -5 -13 -7 -14 -14 -3 -5
7 -8 18 -8 23 0 6 3 4 6 -3 2 -6 9 -10 14 -7z m2139 0 c0 -8 -4 -15 -10 -15
-5 0 -7 7 -4 15 4 8 8 15 10 15 2 0 4 -7 4 -15z m620 -6 c0 -6 -4 -7 -10 -4
-5 3 -10 11 -10 16 0 6 5 7 10 4 6 -3 10 -11 10 -16z m-6910 1 c0 -5 -5 -10
-11 -10 -5 0 -7 5 -4 10 3 6 8 10 11 10 2 0 4 -4 4 -10z m723 -10 c-3 -11 -10
-23 -16 -27 -7 -4 -8 0 -4 11 4 10 7 22 7 27 0 5 4 9 9 9 5 0 7 -9 4 -20z
m1227 0 c0 -11 -2 -20 -4 -20 -2 0 -6 9 -9 20 -3 11 -1 20 4 20 5 0 9 -9 9
-20z m837 -12 c-3 -7 -5 -2 -5 12 0 14 2 19 5 13 2 -7 2 -19 0 -25z m1095 14
c-7 -2 -10 -8 -6 -13 3 -5 3 -9 0 -9 -3 0 -10 9 -15 19 -9 17 -8 18 11 13 13
-3 17 -7 10 -10z m1855 -14 c-3 -7 -5 -2 -5 12 0 14 2 19 5 13 2 -7 2 -19 0
-25z m1103 17 c0 -2 -7 -5 -15 -9 -9 -3 -15 0 -15 9 0 9 6 12 15 9 8 -4 15 -7
15 -9z m30 -1 c0 -8 -4 -12 -10 -9 -5 3 -10 10 -10 16 0 5 5 9 10 9 6 0 10 -7
10 -16z m97 10 c-3 -4 -2 -15 4 -25 5 -11 6 -19 1 -19 -6 0 -12 9 -15 19 -5
19 0 31 11 31 3 0 2 -3 -1 -6z m-5664 -32 c-3 -12 -10 -22 -15 -22 -5 0 -7 3
-5 8 2 4 7 16 11 26 9 25 17 16 9 -12z m2138 2 c5 -15 3 -21 -7 -21 -8 0 -12
2 -9 5 2 3 0 14 -6 24 -8 16 -8 19 2 16 6 -2 15 -13 20 -24z m819 -1 c0 -22
-2 -25 -10 -13 -13 20 -13 40 0 40 6 0 10 -12 10 -27z m300 18 c0 -5 -9 -7
-20 -4 -11 3 -20 7 -20 9 0 2 9 4 20 4 11 0 20 -4 20 -9z m81 -5 c5 3 9 1 9
-5 0 -6 -9 -15 -20 -21 -14 -7 -20 -7 -20 0 0 5 4 10 10 10 5 0 8 6 6 13 -1 6
-1 9 1 4 3 -4 9 -5 14 -1z m879 -2 c0 -8 -5 -12 -10 -9 -6 4 -8 11 -5 16 9 14
15 11 15 -7z m450 12 c0 -2 -7 -6 -15 -10 -8 -3 -15 -1 -15 4 0 6 7 10 15 10
8 0 15 -2 15 -4z m200 -5 c0 -5 -11 -8 -25 -6 -38 4 -43 15 -7 15 18 0 32 -4
32 -9z m219 -24 c0 -21 -1 -21 -9 -2 -12 28 -12 37 0 30 6 -3 10 -16 9 -28z
m79 8 c-3 -3 -9 2 -12 12 -6 14 -5 15 5 6 7 -7 10 -15 7 -18z m742 15 c0 -5
-5 -10 -11 -10 -5 0 -7 5 -4 10 3 6 8 10 11 10 2 0 4 -4 4 -10z m-7330 -10 c0
-5 -2 -10 -4 -10 -3 0 -8 5 -11 10 -3 6 -1 10 4 10 6 0 11 -4 11 -10z m100
-22 c0 -5 -4 -8 -10 -8 -5 0 -10 10 -10 23 0 18 2 19 10 7 5 -8 10 -18 10 -22z
m587 26 c-3 -3 -12 -4 -19 -1 -8 3 -5 6 6 6 11 1 17 -2 13 -5z m361 -14 c-13
-20 -40 -24 -38 -5 1 6 7 9 15 7 7 -1 16 2 20 8 3 5 8 10 11 10 2 0 -1 -9 -8
-20z m79 -12 c-3 -7 -5 -2 -5 12 0 14 2 19 5 13 2 -7 2 -19 0 -25z m163 28 c0
-3 -4 -8 -10 -11 -5 -3 -10 -1 -10 4 0 6 5 11 10 11 6 0 10 -2 10 -4z m1740
-6 c0 -5 -5 -10 -11 -10 -5 0 -7 5 -4 10 3 6 8 10 11 10 2 0 4 -4 4 -10z m817
-22 c-3 -7 -5 -2 -5 12 0 14 2 19 5 13 2 -7 2 -19 0 -25z m1034 5 c-12 -20
-14 -14 -5 12 4 9 9 14 11 11 3 -2 0 -13 -6 -23z m1916 -5 c-3 -7 -5 -2 -5 12
0 14 2 19 5 13 2 -7 2 -19 0 -25z m500 0 c-3 -7 -5 -2 -5 12 0 14 2 19 5 13 2
-7 2 -19 0 -25z m534 9 c-10 -9 -11 -8 -5 6 3 10 9 15 12 12 3 -3 0 -11 -7
-18z m-8044 -9 c-3 -8 -6 -5 -6 6 -1 11 2 17 5 13 3 -3 4 -12 1 -19z m1117 7
c-4 -8 -8 -15 -10 -15 -2 0 -4 7 -4 15 0 8 4 15 10 15 5 0 7 -7 4 -15z m191
-14 c-6 -5 -25 10 -25 20 0 5 6 4 14 -3 8 -7 12 -15 11 -17z m65 14 c-7 -9
-15 -13 -19 -10 -3 3 1 10 9 15 21 14 24 12 10 -5z m21 -8 c-10 -9 -11 -8 -5
6 3 10 9 15 12 12 3 -3 0 -11 -7 -18z m2109 13 c0 -5 -2 -10 -4 -10 -3 0 -8 5
-11 10 -3 6 -1 10 4 10 6 0 11 -4 11 -10z m661 -13 c-13 -13 -26 -3 -16 12 3
6 11 8 17 5 6 -4 6 -10 -1 -17z m2454 13 c3 -5 1 -10 -4 -10 -6 0 -11 5 -11
10 0 6 2 10 4 10 3 0 8 -4 11 -10z m973 -15 c-3 -3 -9 2 -12 12 -6 14 -5 15 5
6 7 -7 10 -15 7 -18z m337 15 c-3 -5 -12 -10 -18 -10 -7 0 -6 4 3 10 19 12 23
12 15 0z m422 -12 c-3 -8 -6 -5 -6 6 -1 11 2 17 5 13 3 -3 4 -12 1 -19z
m-4317 2 c0 -5 -2 -10 -4 -10 -3 0 -8 5 -11 10 -3 6 -1 10 4 10 6 0 11 -4 11
-10z m3085 0 c3 -5 -1 -10 -9 -10 -9 0 -16 5 -16 10 0 6 4 10 9 10 6 0 13 -4
16 -10z m515 0 c0 -5 -7 -10 -16 -10 -8 0 -12 5 -9 10 3 6 10 10 16 10 5 0 9
-4 9 -10z"/>
<path d="M4490 6241 c-8 -3 -17 -17 -19 -31 -1 -14 -7 -32 -12 -42 -6 -11 -4
-18 7 -22 17 -6 29 16 20 39 -3 8 -2 15 3 15 8 0 24 41 18 46 -1 1 -9 -1 -17
-5z"/>
<path d="M7330 6192 c0 -4 11 -9 25 -10 14 -1 25 3 25 8 0 6 -11 10 -25 10
-14 0 -25 -4 -25 -8z"/>
<path d="M2755 6135 c-3 -17 -9 -25 -13 -19 -11 16 -41 24 -48 13 -9 -15 1
-21 41 -26 32 -3 35 -1 35 22 0 18 5 25 20 25 11 0 20 3 20 8 0 4 -11 7 -24 7
-19 0 -26 -7 -31 -30z"/>
<path d="M4382 6150 c0 -14 2 -19 5 -12 2 6 2 18 0 25 -3 6 -5 1 -5 -13z"/>
<path d="M4413 6163 c-7 -3 -13 -9 -13 -14 0 -6 5 -7 10 -4 6 3 10 -1 10 -10
0 -9 -5 -13 -11 -10 -7 5 -6 0 1 -11 13 -20 90 -32 90 -14 0 6 -15 10 -34 10
-31 0 -35 3 -38 28 -2 18 -8 27 -15 25z"/>
<path d="M7331 6154 c0 -11 3 -14 6 -6 3 7 2 16 -1 19 -3 4 -6 -2 -5 -13z"/>
<path d="M4453 6123 c9 -2 23 -2 30 0 6 3 -1 5 -18 5 -16 0 -22 -2 -12 -5z"/>
<path d="M946 5435 c-3 -154 -13 -831 -21 -1505 -8 -674 -17 -1412 -20 -1640
-3 -228 -7 -523 -10 -655 -6 -297 -8 -835 -4 -840 4 -3 1121 -20 2404 -35 883
-10 1411 -17 1900 -25 656 -11 2362 -35 2890 -40 297 -3 552 -8 566 -10 l26
-4 7 362 c3 199 13 1163 21 2142 8 979 16 1936 19 2126 l5 347 -512 6 c-282 3
-951 8 -1487 11 -536 3 -1177 7 -1425 10 -247 3 -1244 10 -2215 15 -971 6
-1849 12 -1951 13 l-187 3 -6 -281z"/>
<path d="M2771 104 c0 -11 3 -14 6 -6 3 7 2 16 -1 19 -3 4 -6 -2 -5 -13z"/>
<path d="M2670 100 c0 -6 7 -10 15 -10 8 0 15 2 15 4 0 2 -7 6 -15 10 -8 3
-15 1 -15 -4z"/>
<path d="M2020 70 c0 -5 7 -7 15 -4 8 4 15 8 15 10 0 2 -7 4 -15 4 -8 0 -15
-4 -15 -10z"/>
<path d="M2665 70 c-3 -5 0 -10 7 -10 10 0 9 -3 -2 -10 -8 -5 -11 -12 -8 -15
10 -10 28 4 28 20 0 18 -17 28 -25 15z"/>
<path d="M4501 68 c0 -7 5 -22 10 -33 9 -19 9 -18 5 3 -2 12 0 22 6 22 5 0 6
5 3 10 -9 14 -25 12 -24 -2z"/>
<path d="M4273 39 c1 -17 7 -26 20 -26 17 -2 17 0 4 10 -8 7 -17 19 -20 27 -3
8 -5 4 -4 -11z"/>
<path d="M2831 32 c-15 -29 -14 -37 4 -22 9 7 15 8 15 2 0 -5 11 -9 25 -8 14
0 25 5 25 9 0 5 5 5 12 1 7 -4 8 -3 4 4 -4 7 -17 9 -31 6 -16 -4 -26 0 -33 12
-9 16 -10 16 -21 -4z"/>
<path d="M2930 39 c0 -5 5 -7 10 -4 6 3 10 8 10 11 0 2 -4 4 -10 4 -5 0 -10
-5 -10 -11z"/>
<path d="M2967 30 c-3 -11 -1 -18 3 -15 5 3 11 -1 13 -7 3 -7 6 -1 6 15 1 31
-14 36 -22 7z"/>
<path d="M3457 19 c-4 -16 -3 -18 9 -8 7 6 11 15 8 20 -8 13 -11 11 -17 -12z"/>
<path d="M3586 23 c-6 -14 -5 -15 5 -6 7 7 10 15 7 18 -3 3 -9 -2 -12 -12z"/>
<path d="M1780 9 c0 -5 5 -7 10 -4 6 3 10 8 10 11 0 2 -4 4 -10 4 -5 0 -10 -5
-10 -11z"/>
<path d="M4245 10 c3 -5 8 -10 11 -10 2 0 4 5 4 10 0 6 -5 10 -11 10 -5 0 -7
-4 -4 -10z"/>
<path d="M4320 10 c0 -5 5 -10 11 -10 5 0 7 5 4 10 -3 6 -8 10 -11 10 -2 0 -4
-4 -4 -10z"/>
<path d="M7195 10 c3 -5 8 -10 11 -10 2 0 4 5 4 10 0 6 -5 10 -11 10 -5 0 -7
-4 -4 -10z"/>
</g>
</svg>
